<svg width="3646" height="1328" viewBox="0 0 3646 1328" fill="none" xmlns="http://www.w3.org/2000/svg">
<rect width="1896" height="664" fill="#F1F5F9"/>
<path d="M0 102C632 101.667 1896 101.2 1896 102" stroke="#DADEE4"/>
<path d="M0 262C632 261.667 1896 261.2 1896 262" stroke="#DADEE4"/>
<path d="M0 422C632 421.667 1896 421.2 1896 422" stroke="#DADEE4"/>
<path d="M0 582C632 581.667 1896 581.2 1896 582" stroke="#DADEE4"/>
<path d="M148.5 1V663.5" stroke="#DADEE4"/>
<path d="M308.5 1V663.5" stroke="#DADEE4"/>
<path d="M468.5 1V663.5" stroke="#DADEE4"/>
<path d="M628.5 1V663.5" stroke="#DADEE4"/>
<path d="M788.5 1V663.5" stroke="#DADEE4"/>
<path d="M948.5 1V663.5" stroke="#DADEE4"/>
<path d="M1108.5 1V663.5" stroke="#DADEE4"/>
<path d="M1268.5 1V663.5" stroke="#DADEE4"/>
<path d="M1428.5 1V663.5" stroke="#DADEE4"/>
<path d="M1588.5 1V663.5" stroke="#DADEE4"/>
<path d="M1748.5 1V663.5" stroke="#DADEE4"/>
<rect y="664" width="1896" height="664" fill="#F1F5F9"/>
<path d="M0 766C632 765.667 1896 765.2 1896 766" stroke="#DADEE4"/>
<path d="M0 926C632 925.667 1896 925.2 1896 926" stroke="#DADEE4"/>
<path d="M0 1086C632 1085.67 1896 1085.2 1896 1086" stroke="#DADEE4"/>
<path d="M0 1246C632 1245.67 1896 1245.2 1896 1246" stroke="#DADEE4"/>
<path d="M148.5 665V1327.5" stroke="#DADEE4"/>
<path d="M308.5 665V1327.5" stroke="#DADEE4"/>
<path d="M468.5 665V1327.5" stroke="#DADEE4"/>
<path d="M628.5 665V1327.5" stroke="#DADEE4"/>
<path d="M788.5 665V1327.5" stroke="#DADEE4"/>
<path d="M948.5 665V1327.5" stroke="#DADEE4"/>
<path d="M1108.5 665V1327.5" stroke="#DADEE4"/>
<path d="M1268.5 665V1327.5" stroke="#DADEE4"/>
<path d="M1428.5 665V1327.5" stroke="#DADEE4"/>
<path d="M1588.5 665V1327.5" stroke="#DADEE4"/>
<path d="M1748.5 665V1327.5" stroke="#DADEE4"/>
<rect x="1749" width="1896" height="664" fill="#F1F5F9"/>
<path d="M1749 102C2381 101.667 3645 101.2 3645 102" stroke="#DADEE4"/>
<path d="M1749 262C2381 261.667 3645 261.2 3645 262" stroke="#DADEE4"/>
<path d="M1749 422C2381 421.667 3645 421.2 3645 422" stroke="#DADEE4"/>
<path d="M1749 582C2381 581.667 3645 581.2 3645 582" stroke="#DADEE4"/>
<path d="M1897.5 1V663.5" stroke="#DADEE4"/>
<path d="M2057.5 1V663.5" stroke="#DADEE4"/>
<path d="M2217.5 1V663.5" stroke="#DADEE4"/>
<path d="M2377.5 1V663.5" stroke="#DADEE4"/>
<path d="M2537.5 1V663.5" stroke="#DADEE4"/>
<path d="M2697.5 1V663.5" stroke="#DADEE4"/>
<path d="M2857.5 1V663.5" stroke="#DADEE4"/>
<path d="M3017.5 1V663.5" stroke="#DADEE4"/>
<path d="M3177.5 1V663.5" stroke="#DADEE4"/>
<path d="M3337.5 1V663.5" stroke="#DADEE4"/>
<path d="M3497.5 1V663.5" stroke="#DADEE4"/>
<rect x="1749" y="664" width="1896" height="664" fill="#F1F5F9"/>
<path d="M1749 766C2381 765.667 3645 765.2 3645 766" stroke="#DADEE4"/>
<path d="M1749 926C2381 925.667 3645 925.2 3645 926" stroke="#DADEE4"/>
<path d="M1749 1086C2381 1085.67 3645 1085.2 3645 1086" stroke="#DADEE4"/>
<path d="M1749 1246C2381 1245.67 3645 1245.2 3645 1246" stroke="#DADEE4"/>
<path d="M1897.5 665V1327.5" stroke="#DADEE4"/>
<path d="M2057.5 665V1327.5" stroke="#DADEE4"/>
<path d="M2217.5 665V1327.5" stroke="#DADEE4"/>
<path d="M2377.5 665V1327.5" stroke="#DADEE4"/>
<path d="M2537.5 665V1327.5" stroke="#DADEE4"/>
<path d="M2697.5 665V1327.5" stroke="#DADEE4"/>
<path d="M2857.5 665V1327.5" stroke="#DADEE4"/>
<path d="M3017.5 665V1327.5" stroke="#DADEE4"/>
<path d="M3177.5 665V1327.5" stroke="#DADEE4"/>
<path d="M3337.5 665V1327.5" stroke="#DADEE4"/>
<path d="M3497.5 665V1327.5" stroke="#DADEE4"/>
</svg>
