<svg width="163" height="36" viewBox="0 0 163 36" fill="none" xmlns="http://www.w3.org/2000/svg">
<g clip-path="url(#clip0_1_2)">
<path fill-rule="evenodd" clip-rule="evenodd" d="M95.5707 14.1702H89.3249V14.8327C91.2785 14.8327 91.5926 15.2514 91.5926 17.7289V22.1953C91.5926 24.6726 91.2788 25.1262 89.3249 25.1262C87.825 24.917 86.8127 24.1143 85.4171 22.5791L83.8122 20.8346C85.9753 20.4503 87.1265 19.0899 87.1265 17.5544C87.1265 15.6358 85.487 14.1702 82.4163 14.1702H76.2754V14.8327C78.229 14.8327 78.5431 15.2514 78.5431 17.7289V22.1953C78.5431 24.6726 78.229 25.1262 76.2754 25.1262V25.7891H83.2187V25.1262C81.2651 25.1262 80.951 24.6726 80.951 22.1953V20.9395H81.5439L85.4171 25.7891H95.5707C100.56 25.7891 102.724 23.1376 102.724 19.962C102.724 16.7869 100.56 14.1702 95.5707 14.1702V14.1702ZM80.951 19.8571V15.217H82.3813C83.9512 15.217 84.6493 16.2986 84.6493 17.5547C84.6493 18.7761 83.9512 19.8574 82.3813 19.8574H80.951V19.8571ZM95.4312 24.7075H95.6756C99.304 24.7075 99.9669 22.0555 99.9669 19.9273C99.9669 17.8685 99.3043 15.217 95.6756 15.217H94.0008V22.7886C94.0008 24.3937 94.1754 24.7075 95.4312 24.7075Z" fill="#B6BDD3"/>
<path d="M56.8408 21.1488L59.2484 14.0304C59.9465 11.9718 59.6325 11.3789 57.3994 11.3789V10.6808H63.959V11.3789C61.7609 11.3789 61.2376 11.9022 60.3652 14.4494L56.3872 26.3824H55.9338L52.3745 15.461L48.746 26.3824H48.2924L44.4195 14.4494C43.5821 11.9022 43.0238 11.3789 41 11.3789V10.6808H48.746V11.3789C46.6872 11.3789 46.1287 11.8672 46.8618 14.0304L49.1994 21.1488L52.7235 10.6808H53.3867L56.8408 21.1488Z" fill="#B6BDD3"/>
<path fill-rule="evenodd" clip-rule="evenodd" d="M61.7266 19.9617C61.7266 23.4165 64.8669 26.2425 68.7048 26.2425C72.543 26.2425 75.6831 23.4165 75.6831 19.9617C75.6831 16.5425 72.543 13.7159 68.7048 13.7159C64.8672 13.7159 61.7266 16.5425 61.7266 19.9617V19.9617ZM64.3781 19.9621C64.3781 17.694 65.4949 14.7984 68.7046 14.7984C71.9499 14.7984 73.0664 17.694 73.0664 19.9621C73.0664 22.2653 71.9499 25.1263 68.7046 25.1263C65.4949 25.1263 64.3781 22.2653 64.3781 19.9621Z" fill="#B6BDD3"/>
<path fill-rule="evenodd" clip-rule="evenodd" d="M111.342 25.7891V25.0912C109.004 25.0912 108.585 24.4983 108.585 21.0083V19.2991H110.574C114.168 19.2991 116.157 17.4151 116.157 15.0075C116.157 12.5297 114.168 10.6804 110.574 10.6804H103.352V11.3785C105.69 11.3785 106.108 11.9365 106.108 15.4262V21.0086C106.108 24.4983 105.69 25.0912 103.352 25.0912V25.7891H111.342ZM108.585 11.9365H110.574C112.528 11.9365 113.435 13.3328 113.435 15.0076C113.435 16.6474 112.528 18.0081 110.574 18.0081H108.585V11.9365Z" fill="#B6BDD3"/>
<path fill-rule="evenodd" clip-rule="evenodd" d="M139.952 23.1373L140.127 22.5094V22.5097H140.65L140.441 25.7891H126.101L122.228 20.9395H121.635V22.1953C121.635 24.6726 121.949 25.1262 123.903 25.1262V25.7891H116.959V25.1262C118.913 25.1262 119.227 24.6726 119.227 22.1953V17.7289C119.227 15.2514 118.913 14.8327 116.959 14.8327V14.1702H123.1C126.17 14.1702 127.81 15.6358 127.81 17.5544C127.81 19.0899 126.659 20.4503 124.495 20.8346L126.1 22.5791C127.476 24.0917 128.481 24.8903 129.945 25.1139C131.486 25.0325 131.752 24.4616 131.752 22.1953V17.7289C131.752 15.2514 131.438 14.8327 129.484 14.8327V14.1702H139.743L139.987 17.4498H139.429L139.254 16.7872C138.94 15.6358 138.556 15.2171 136.079 15.2171H134.16V19.1246C136.882 19.1246 137.091 18.8804 137.091 17.0661H137.754V22.2653H137.091C137.091 20.4506 136.882 20.2067 134.16 20.2067V21.8116C134.16 24.2888 134.474 24.7075 136.288 24.7075H136.777C139.254 24.7075 139.638 24.2888 139.952 23.1373V23.1373ZM121.634 15.217V19.8571V19.8574H123.065C124.635 19.8574 125.333 18.7761 125.333 17.5547C125.333 16.2986 124.635 15.217 123.065 15.217H121.634Z" fill="#B6BDD3"/>
<path d="M147.209 26.2425C145.813 26.2425 144.592 25.51 144.069 25.0561C143.894 25.2309 143.58 25.7542 143.511 26.2425H142.848V21.428H143.545C143.825 23.7307 145.429 25.0913 147.488 25.0913C148.605 25.0913 149.512 24.4635 149.512 23.4169C149.512 22.5098 148.71 21.8117 147.279 21.1488L145.29 20.2068C143.894 19.5434 142.848 18.3919 142.848 16.857C142.848 15.1822 144.418 13.7519 146.581 13.7519C147.733 13.7519 148.709 14.1706 149.303 14.6589C149.477 14.5193 149.652 14.1353 149.757 13.7163H150.419V17.8339H149.687C149.442 16.1938 148.535 14.8331 146.686 14.8331C145.709 14.8331 144.802 15.3914 144.802 16.264C144.802 17.1711 145.534 17.6594 147.209 18.4272L149.128 19.3692C150.803 20.1716 151.466 21.4632 151.466 22.5098C151.466 24.7076 149.547 26.2425 147.209 26.2425V26.2425Z" fill="#B6BDD3"/>
<path d="M157.957 26.2425C156.562 26.2425 155.34 25.51 154.817 25.0561C154.643 25.2309 154.329 25.7542 154.259 26.2425H153.596V21.428H154.294C154.573 23.7307 156.178 25.0913 158.237 25.0913C159.353 25.0913 160.26 24.4635 160.26 23.4169C160.26 22.5098 159.458 21.8117 158.027 21.1488L156.038 20.2068C154.643 19.5434 153.596 18.3919 153.596 16.857C153.596 15.1822 155.166 13.7519 157.329 13.7519C158.481 13.7519 159.457 14.1706 160.051 14.6589C160.225 14.5193 160.4 14.1353 160.504 13.7163H161.167V17.8339H160.435C160.19 16.1938 159.283 14.8331 157.434 14.8331C156.457 14.8331 155.55 15.3914 155.55 16.264C155.55 17.1711 156.282 17.6594 157.957 18.4272L159.876 19.3692C161.551 20.1716 162.214 21.4632 162.214 22.5098C162.214 24.7076 160.295 26.2425 157.957 26.2425V26.2425Z" fill="#B6BDD3"/>
<path d="M2.55823 17.9996C2.55823 24.1117 6.11025 29.3937 11.261 31.8968L3.89512 11.7153C3.03833 13.6358 2.55823 15.761 2.55823 17.9996V17.9996Z" fill="#B6BDD3"/>
<path d="M28.4246 17.2203C28.4246 15.312 27.7391 13.9903 27.1512 12.9617C26.3684 11.6897 25.6348 10.6126 25.6348 9.3406C25.6348 7.92115 26.7113 6.59983 28.2277 6.59983C28.2962 6.59983 28.3611 6.60835 28.4278 6.61217C25.6806 4.09528 22.0205 2.55859 18.0004 2.55859C12.6058 2.55859 7.85968 5.3264 5.09863 9.51866C5.46092 9.52953 5.80234 9.53717 6.09234 9.53717C7.70748 9.53717 10.2076 9.34119 10.2076 9.34119C11.04 9.29212 11.1382 10.5147 10.3066 10.6131C10.3066 10.6131 9.47012 10.7116 8.53929 10.7604L14.1625 27.4862L17.5417 17.3514L15.1359 10.7598C14.3044 10.711 13.5166 10.6126 13.5166 10.6126C12.6845 10.5638 12.7821 9.29153 13.6142 9.3406C13.6142 9.3406 16.1643 9.53658 17.6816 9.53658C19.2964 9.53658 21.7969 9.3406 21.7969 9.3406C22.6298 9.29153 22.7277 10.5141 21.8959 10.6126C21.8959 10.6126 21.0576 10.711 20.1285 10.7598L25.7088 27.359L27.249 22.2121C27.9166 20.0763 28.4246 18.5422 28.4246 17.2203Z" fill="#B6BDD3"/>
<path d="M18.2711 19.3503L13.6381 32.8129C15.0214 33.2196 16.4843 33.442 18.0001 33.442C19.7983 33.442 21.5228 33.1311 23.1279 32.5667C23.0865 32.5006 23.0489 32.4304 23.018 32.354L18.2711 19.3503Z" fill="#B6BDD3"/>
<path d="M31.5494 10.5912C31.6158 11.0831 31.6534 11.6111 31.6534 12.1791C31.6534 13.746 31.3608 15.5075 30.4793 17.71L25.7626 31.3472C30.3533 28.6701 33.441 23.6966 33.441 18C33.4413 15.3153 32.7555 12.7908 31.5494 10.5912V10.5912Z" fill="#B6BDD3"/>
<path fill-rule="evenodd" clip-rule="evenodd" d="M0 17.9996C0 8.07453 8.07512 0 18.0001 0C27.9249 0 36.0009 8.07453 36.0012 17.9996C36.0012 27.9258 27.9249 36 18.0001 36C8.07512 36 0 27.9258 0 17.9996H0ZM0.82518 17.9995C0.82518 27.47 8.53008 35.1749 18 35.1749C27.4696 35.1749 35.1739 27.47 35.1739 17.9995C35.1739 8.52962 27.4696 0.8253 18 0.8253C8.52979 0.8253 0.82518 8.52962 0.82518 17.9995V17.9995Z" fill="#B6BDD3"/>
</g>
<defs>
<clipPath id="clip0_1_2">
<rect width="163" height="36" fill="white"/>
</clipPath>
</defs>
</svg>
