<svg width="137" height="35" viewBox="0 0 137 35" fill="none" xmlns="http://www.w3.org/2000/svg">
<g clip-path="url(#clip0_1_17)">
<path fill-rule="evenodd" clip-rule="evenodd" d="M81.027 14.9362C83.9954 16.421 85.5297 18.1931 85.5967 20.1902C85.338 23.5353 83.099 25.4565 79.0435 25.457C77.7596 25.395 76.4899 25.1285 75.2669 24.6656C75.5421 23.738 75.7469 22.7736 75.8756 21.7971H75.9113C76.3887 23.5942 77.6463 24.5405 79.6565 24.6104C81.6885 24.5375 82.7915 23.568 82.9379 21.7171C82.9379 20.4002 81.7697 19.1989 79.4631 18.1509C76.704 16.8685 75.3056 15.0963 75.3056 12.8895C75.4323 9.61416 77.2796 7.92725 80.9417 7.73352C82.3972 7.7949 83.6692 8.14553 84.7241 8.77386C84.6068 9.07564 84.4668 9.44097 84.3015 9.87643C84.166 10.2876 84.0615 10.6145 83.9867 10.8702C83.2715 9.41654 82.2155 8.68113 80.8427 8.68113C78.8254 8.75381 77.7595 9.75307 77.7595 11.5731C77.7595 12.7015 78.8271 13.8029 81.027 14.9362V14.9362ZM35.0779 8.24748V23.6272C35.0779 23.7713 35.1898 23.8937 35.3326 23.9063C36.143 23.9735 37.0433 23.9735 37.9892 23.9063C38.7612 23.8465 39.7031 23.7362 40.8662 23.5679C40.8238 23.8029 40.8029 24.0568 40.8029 24.331C40.8029 24.5643 40.8268 24.848 40.8721 25.1551H31.7188V8.25052C31.8932 8.26583 32.1181 8.29342 32.3963 8.33134C32.8025 8.40098 33.2193 8.40268 33.4678 8.33632L34.2912 8.33268C34.6045 8.2899 34.8637 8.26012 35.0779 8.24748V8.24748ZM46.0499 9.08848C45.5616 9.15666 45.2363 9.158 45.0018 9.09213H44.1784C43.8874 9.05239 43.6652 9.02699 43.498 9.01082V25.155H46.6846V9.00718C46.5012 9.02127 46.2925 9.04777 46.0499 9.08848ZM49.2524 9.67758C49.2524 9.45363 49.237 9.22458 49.2062 8.99553H61.1879C61.1427 9.22462 61.1408 9.45627 61.1806 9.68439C61.1427 9.97036 61.1427 10.2261 61.1793 10.4492C60.8184 10.4356 60.4724 10.4058 60.1462 10.3588C58.857 10.2314 57.846 10.1664 57.1395 10.1664C56.9851 10.1664 56.8595 10.2915 56.8595 10.4454V25.1551H53.7683V10.4454C53.7683 10.2916 53.6432 10.1664 53.4878 10.1664C52.5169 10.1664 51.2508 10.2639 49.7429 10.4546H49.2107C49.2378 10.2323 49.2524 9.97218 49.2524 9.67758V9.67758ZM63.7237 8.9954V25.1551H72.4537C72.4111 24.864 72.3885 24.598 72.3885 24.3781C72.3885 24.1266 72.408 23.891 72.4431 23.6753C71.8489 23.7657 71.187 23.8379 70.4769 23.8865C69.6511 23.953 68.5136 23.9852 67.0941 23.9852C66.9399 23.9852 66.8149 23.8595 66.8149 23.7045V17.459C66.8149 17.3054 66.9399 17.1798 67.0941 17.1798H69.4302C70.1571 17.2223 70.7506 17.265 71.3362 17.3072H71.3363L71.4609 17.3162L71.9233 17.3483L71.921 17.3379L71.9209 17.3374C71.908 17.2784 71.8936 17.2125 71.8777 17.1429L71.8692 16.0189C71.8692 15.9873 71.8737 15.9566 71.8846 15.9295C71.8906 15.9078 71.8973 15.8852 71.9041 15.8645C71.0813 15.9665 70.3292 16.0094 69.4304 16.0094H67.0942C66.94 16.0094 66.815 15.8838 66.815 15.7298V10.4454C66.815 10.2915 66.94 10.1664 67.0942 10.1664C68.8173 10.1664 70.6269 10.2785 72.4759 10.5006C72.4177 10.2458 72.3885 10.001 72.3885 9.77335C72.3885 9.50245 72.4176 9.24127 72.4769 8.9954H63.7237ZM90.9357 17.8643C90.8873 17.8676 90.8168 17.88 90.7581 17.9378C90.7071 17.9889 90.6773 18.0583 90.6773 18.1296V25.155H87.4692V8.99272H93.2485C96.5576 8.99272 98.1973 10.2575 98.2583 12.8563C98.2823 14.2706 97.8932 15.3963 97.1036 16.2005C96.0164 17.3082 94.1136 17.8697 91.448 17.8697C91.284 17.8697 91.1206 17.8672 90.9357 17.8643V17.8643ZM91.2981 17.0773C91.1634 17.0773 91.0303 17.0677 90.9069 17.0497C90.7749 17.0317 90.6774 16.9187 90.6774 16.7864V9.9739C90.6774 9.8266 90.7981 9.70604 90.9456 9.70604H92.4794C94.0544 9.91787 94.9128 11.1321 95.0488 13.3149C94.9128 15.2511 94.1042 16.4351 92.6483 16.8516C92.1472 17.0011 91.6923 17.0773 91.2981 17.0773ZM111.091 8.99285V25.155H119.836C119.794 24.8613 119.772 24.5907 119.772 24.3655C119.772 24.1094 119.79 23.8689 119.828 23.6502C119.227 23.7424 118.561 23.8161 117.849 23.8649C117.016 23.9304 115.913 23.9617 114.473 23.9617C114.325 23.9617 114.205 23.8411 114.205 23.6955V17.4573C114.205 17.3108 114.325 17.1903 114.473 17.1903H117.063C118.036 17.249 118.922 17.3046 119.733 17.3601L119.725 17.3246C119.713 17.2675 119.699 17.205 119.682 17.1378L119.674 16.0189C119.674 15.9883 119.678 15.9593 119.689 15.9336C119.698 15.9052 119.707 15.8771 119.716 15.8518C118.906 15.9476 118.015 15.9973 117.063 15.9973H114.473C114.325 15.9973 114.205 15.8771 114.205 15.7308V10.4532C114.205 10.3059 114.325 10.1862 114.473 10.1862C116.2 10.1862 118.012 10.3001 119.862 10.5229C119.801 10.2622 119.772 10.0137 119.772 9.78246C119.772 9.50463 119.801 9.24126 119.865 8.99285H111.091ZM122.082 25.1552H127.407C132.908 24.8439 135.856 21.9584 136.167 16.5791C135.916 11.7926 133.548 9.30587 128.931 8.99146L122.082 8.99279V25.1552ZM132.575 16.594C132.575 12.1517 130.579 9.89714 126.648 9.89714H125.46C125.314 9.89714 125.193 10.0182 125.193 10.1655V23.9834C125.193 24.1293 125.314 24.2505 125.46 24.2505H126.509C128.52 24.2505 130.053 23.5939 131.068 22.3025C132.067 21.0277 132.575 19.1076 132.575 16.594V16.594ZM100.049 25.155V8.99285H108.818C108.759 9.24126 108.727 9.50463 108.727 9.78246C108.727 10.0137 108.757 10.2622 108.817 10.5229C106.967 10.3001 105.154 10.1862 103.427 10.1862C103.281 10.1862 103.16 10.3059 103.16 10.4532V15.7308C103.16 15.8771 103.281 15.9973 103.427 15.9973H106.019C106.973 15.9973 107.863 15.9476 108.669 15.8518C108.662 15.8771 108.653 15.9052 108.645 15.9336C108.635 15.9593 108.63 15.9883 108.63 16.0189L108.639 17.1378C108.658 17.2192 108.675 17.2937 108.689 17.3601C107.877 17.3046 106.993 17.249 106.019 17.1903H103.427C103.281 17.1903 103.16 17.3108 103.16 17.4573V23.6955C103.16 23.8411 103.281 23.9617 103.427 23.9617C104.868 23.9617 105.973 23.9304 106.805 23.8649C107.516 23.8161 108.18 23.7424 108.784 23.6502C108.746 23.8689 108.727 24.1094 108.727 24.3655C108.727 24.5907 108.751 24.8613 108.792 25.155H100.049Z" fill="#B6BDD3"/>
<path d="M26.4662 16.8242L18.4968 8.85614L15.1026 13.1647L18.7622 16.8241C19.0998 17.1621 19.0998 17.7141 18.7622 18.0519L17.7037 19.11C17.7037 19.11 18.4175 20.1784 18.4503 20.2427C18.6149 20.573 18.6548 21.3486 18.1873 21.7024L9.86374 28.0928C9.8618 30.2372 9.85888 34.6464 9.86228 34.6484C9.86374 34.6489 26.4664 18.0517 26.4664 18.0517C26.8038 17.7138 26.8038 17.1622 26.4662 16.8242V16.8242Z" fill="#B6BDD3"/>
<path d="M7.95646 17.8269C7.62005 17.4908 7.62005 16.9392 7.95646 16.6011L9.01637 15.5412L8.29178 14.5C7.94625 14.0107 8.05503 13.315 8.53145 12.9508L16.8566 6.55999L16.8623 0.00850747L16.8576 0.0058337L16.8533 0L0.25331 16.6011C-0.0845581 16.9392 -0.0845581 17.4908 0.254039 17.8285L8.22177 25.7967L11.6169 21.4882L7.95646 17.8269Z" fill="#B6BDD3"/>
<path fill-rule="evenodd" clip-rule="evenodd" d="M20.5967 4.05112C20.7792 3.90856 20.9115 3.85059 21.0522 3.85059C21.2215 3.85059 21.384 3.95328 21.4593 4.10532C21.5942 4.38354 21.398 4.63356 21.3015 4.7565L21.299 4.75967L14.0044 14.0187C13.9387 14.1015 13.933 14.2878 13.9934 14.3735C13.9934 14.3735 17.9302 20.0843 18.0657 20.2788C18.2577 20.5556 18.2563 21.2892 17.8507 21.5964L6.12194 30.6005C5.95739 30.7267 5.82661 30.8017 5.64382 30.8032C5.48595 30.7927 5.32856 30.6891 5.25989 30.5507C5.12329 30.2733 5.32334 30.0147 5.41959 29.8907L12.7118 20.6363C12.7784 20.5471 12.786 20.3697 12.7261 20.2788L8.65535 14.4248C8.35042 13.9911 8.44461 13.3786 8.86597 13.0563L20.5967 4.05112ZM21.4327 4.11937C21.3624 3.9773 21.2098 3.88165 21.0529 3.88165C20.9191 3.88165 20.7924 3.93792 20.6161 4.07598L8.88523 13.0813C8.47748 13.3931 8.38584 13.9884 8.68093 14.4081L12.7518 20.2622C12.8191 20.3641 12.8117 20.5551 12.7369 20.6552L5.4442 29.9101C5.35183 30.029 5.15932 30.2769 5.28779 30.5379C5.35183 30.6667 5.49938 30.7637 5.64656 30.7735C5.81744 30.7719 5.93958 30.7033 6.10426 30.577L17.8329 21.5729C18.2149 21.2834 18.233 20.5727 18.0413 20.2967C17.9111 20.11 14.2276 14.7664 13.9816 14.4097L13.9691 14.3914C13.901 14.2949 13.9072 14.0939 13.9812 14.0006L21.2759 4.74163V4.7416C21.3765 4.61337 21.5593 4.38053 21.4327 4.11937V4.11937Z" fill="#B6BDD3"/>
<path d="M17.6447 20.3867C17.7393 20.5298 17.8245 21.0719 17.5866 21.251L5.85629 30.2563C5.75748 30.3319 5.69428 30.3685 5.66609 30.3662C5.62561 30.3685 5.6549 30.2966 5.76258 30.1577L13.0542 20.9054C13.2387 20.6667 13.2511 20.2754 13.0818 20.0319L9.01147 14.1741C9.01147 14.1743 17.5505 20.2429 17.6447 20.3867V20.3867Z" fill="#B6BDD3"/>
<path d="M17.6447 20.3865L13.6363 14.6206C13.4661 14.3762 13.4797 13.984 13.6619 13.7514L20.9548 4.49335C21.0632 4.35541 21.0912 4.2865 21.0522 4.2865C21.0233 4.2865 20.959 4.32029 20.862 4.39734L9.13132 13.4015C8.89591 13.5826 8.84024 13.9312 9.01149 14.1741L17.6447 20.3865Z" fill="#B6BDD3"/>
</g>
<defs>
<clipPath id="clip0_1_17">
<rect width="137" height="35" fill="white"/>
</clipPath>
</defs>
</svg>
